<svg xmlns="http://www.w3.org/2000/svg" version="1.1" xmlns:xlink="http://www.w3.org/1999/xlink" xmlns:svgjs="http://svgjs.com/svgjs" width="1980" height="1020" preserveAspectRatio="none" viewBox="0 0 1980 1020"><g mask="url(&quot;#SvgjsMask1642&quot;)" fill="none"><rect width="1980" height="1020" x="0" y="0" fill="rgba(18, 18, 18, 1)"></rect><path d="M0.41 -23.49L102.6 35.51L102.6 153.51L0.41 212.51L-101.78 153.51L-101.78 35.51zM204.8 -23.49L306.99 35.51L306.99 153.51L204.8 212.51L102.6 153.51L102.6 35.51zM306.99 861.51L409.19 920.51L409.19 1038.51L306.99 1097.51L204.8 1038.51L204.8 920.51zM204.8 1038.51L306.99 1097.51L306.99 1215.51L204.8 1274.51L102.6 1215.51L102.6 1097.51zM511.38 153.51L613.57 212.51L613.57 330.51L511.38 389.51L409.19 330.51L409.19 212.51zM409.19 330.51L511.38 389.51L511.38 507.51L409.19 566.51L306.99 507.51L306.99 389.51zM409.19 684.51L511.38 743.51L511.38 861.51L409.19 920.51L306.99 861.51L306.99 743.51zM715.77 153.51L817.96 212.51L817.96 330.51L715.77 389.51L613.57 330.51L613.57 212.51zM613.57 330.51L715.77 389.51L715.77 507.51L613.57 566.51L511.38 507.51L511.38 389.51zM1124.54 861.51L1226.74 920.51L1226.74 1038.51L1124.54 1097.51L1022.35 1038.51L1022.35 920.51zM1226.74 330.51L1328.93 389.51L1328.93 507.51L1226.74 566.51L1124.54 507.51L1124.54 389.51zM1328.93 507.51L1431.12 566.51L1431.12 684.51L1328.93 743.51L1226.74 684.51L1226.74 566.51zM1431.12 330.51L1533.32 389.51L1533.32 507.51L1431.12 566.51L1328.93 507.51L1328.93 389.51zM1533.32 507.51L1635.51 566.51L1635.51 684.51L1533.32 743.51L1431.12 684.51L1431.12 566.51zM1533.32 861.51L1635.51 920.51L1635.51 1038.51L1533.32 1097.51L1431.12 1038.51L1431.12 920.51zM1431.12 1038.51L1533.32 1097.51L1533.32 1215.51L1431.12 1274.51L1328.93 1215.51L1328.93 1097.51zM1737.71 153.51L1839.9 212.51L1839.9 330.51L1737.71 389.51L1635.51 330.51L1635.51 212.51zM1737.71 507.51L1839.9 566.51L1839.9 684.51L1737.71 743.51L1635.51 684.51L1635.51 566.51zM1635.51 1038.51L1737.71 1097.51L1737.71 1215.51L1635.51 1274.51L1533.32 1215.51L1533.32 1097.51zM1839.9 684.51L1942.09 743.51L1942.09 861.51L1839.9 920.51L1737.71 861.51L1737.71 743.51zM1839.9 1038.51L1942.09 1097.51L1942.09 1215.51L1839.9 1274.51L1737.71 1215.51L1737.71 1097.51z" stroke="rgba(22, 104, 220, 0.7019607843137254)" stroke-width="2"></path><path d="M70.25 -132.35L201.89 -56.35L201.89 95.65L70.25 171.65L-61.39 95.65L-61.39 -56.35zM201.89 551.65L333.53 627.65L333.53 779.65L201.89 855.65L70.25 779.65L70.25 627.65zM70.25 779.65L201.89 855.65L201.89 1007.65L70.25 1083.65L-61.39 1007.65L-61.39 855.65zM333.53 779.65L465.17 855.65L465.17 1007.65L333.53 1083.65L201.89 1007.65L201.89 855.65zM596.81 -132.35L728.45 -56.35L728.45 95.65L596.81 171.65L465.17 95.65L465.17 -56.35zM728.45 551.65L860.09 627.65L860.09 779.65L728.45 855.65L596.81 779.65L596.81 627.65zM1123.37 -132.35L1255.01 -56.35L1255.01 95.65L1123.37 171.65L991.73 95.65L991.73 -56.35zM1255.01 95.65L1386.65 171.65L1386.65 323.65L1255.01 399.65L1123.37 323.65L1123.37 171.65zM1255.01 551.65L1386.65 627.65L1386.65 779.65L1255.01 855.65L1123.37 779.65L1123.37 627.65zM1386.65 -132.35L1518.29 -56.35L1518.29 95.65L1386.65 171.65L1255.01 95.65L1255.01 -56.35zM1386.65 323.65L1518.29 399.65L1518.29 551.65L1386.65 627.65L1255.01 551.65L1255.01 399.65zM1649.93 -132.35L1781.56 -56.35L1781.56 95.65L1649.93 171.65L1518.29 95.65L1518.29 -56.35zM1649.93 779.65L1781.56 855.65L1781.56 1007.65L1649.93 1083.65L1518.29 1007.65L1518.29 855.65zM1913.2 -132.35L2044.84 -56.35L2044.84 95.65L1913.2 171.65L1781.56 95.65L1781.56 -56.35zM2044.84 551.65L2176.48 627.65L2176.48 779.65L2044.84 855.65L1913.2 779.65L1913.2 627.65z" stroke="rgba(22, 104, 220, 0.6588235294117647)" stroke-width="2"></path></g><defs><mask id="SvgjsMask1642"><rect width="1980" height="1020" fill="#ffffff"></rect></mask></defs></svg>