<svg width="123" height="123" viewBox="0 0 123 123" fill="none" xmlns="http://www.w3.org/2000/svg">
<g clip-path="url(#clip0_7202_1097)">
<path fill-rule="evenodd" clip-rule="evenodd" d="M94.754 14.534C103.598 14.534 110.768 21.704 110.768 30.546C110.768 39.39 103.598 46.561 94.754 46.561C85.911 46.561 78.741 39.391 78.741 30.546C78.741 21.704 85.911 14.534 94.754 14.534ZM109.265 52.121C102.06 52.121 96.216 57.965 96.216 65.169C96.216 72.376 102.06 78.218 109.265 78.22C116.472 78.22 122.316 72.376 122.316 65.169C122.315 57.965 116.472 52.121 109.265 52.121ZM94.135 89.903C89.103 89.903 85.021 93.985 85.021 99.016C85.021 104.048 89.103 108.13 94.135 108.13C99.166 108.13 103.248 104.048 103.248 99.016C103.248 93.985 99.166 89.903 94.135 89.903ZM59.275 104.65C54.243 104.65 50.161 108.731 50.161 113.763C50.161 118.797 54.243 122.879 59.275 122.879C64.307 122.879 68.388 118.797 68.388 113.763C68.389 108.731 64.308 104.65 59.275 104.65ZM23.652 90.86C18.935 90.86 15.112 94.683 15.112 99.4C15.112 104.115 18.935 107.94 23.652 107.94C28.366 107.94 32.19 104.115 32.19 99.4C32.19 94.684 28.366 90.86 23.652 90.86ZM9.096 54.872C4.072 54.872 0 58.944 0 63.968C0 68.989 4.072 73.061 9.096 73.061C14.117 73.061 18.189 68.989 18.189 63.968C18.189 58.944 14.116 54.872 9.096 54.872ZM23.652 17.026C17.298 17.026 12.144 22.181 12.144 28.535C12.144 34.889 17.298 40.041 23.652 40.041C30.006 40.041 35.158 34.889 35.158 28.535C35.158 22.181 30.006 17.026 23.652 17.026ZM59.341 0C51.69 0 45.483 6.205 45.483 13.855C45.483 21.506 51.69 27.711 59.341 27.711C66.992 27.711 73.197 21.506 73.197 13.855C73.197 6.205 66.992 0 59.341 0Z" fill="white"/>
</g>
<defs>
<clipPath id="clip0_7202_1097">
<rect width="122.315" height="122.88" fill="white"/>
</clipPath>
</defs>
</svg>
